<?xml version="1.0"?>
<svg xmlns="http://www.w3.org/2000/svg" id="Layer_1" data-name="Layer 1" viewBox="0 0 128 128" width="512" height="512"><title>MONAS TOWER</title><path d="M48.8,92.75a8.432,8.432,0,0,1,2.8,3.017l.141.265h7.572a.5.5,0,0,1,0,1H52.147l.11.591a6.059,6.059,0,0,1,.118,1.126,7.041,7.041,0,0,1-2.794,5.431l-1.083.887h31l-1.084-.887a7.888,7.888,0,0,1-2.125-2.609l-.137-.279h-7.47a.5.5,0,0,1,0-1H75.8l-.091-.578a6.184,6.184,0,0,1-.082-.964,7.325,7.325,0,0,1,3.577-6l1.378-.916H47.419Z" style="fill:#d3e8ea"/><polygon points="58.354 90.833 69.646 90.833 67.373 33.553 60.626 33.553 58.354 90.833" style="fill:#d3e8ea"/><rect x="57.083" y="29.083" width="13.833" height="3.469" style="fill:#fff"/><polygon points="65.233 110.333 73.62 110.333 69.427 106.265 65.233 110.333" style="fill:#fff"/><polygon points="79.046 106.068 70.66 106.068 74.853 110.137 79.046 106.068" style="fill:#fff"/><path d="M64,28.084a3.045,3.045,0,0,0,3.041-3.042c0-1.275-1.821-4.7-2.6-6.111L64,18.142l-.438.789c-.783,1.413-2.6,4.836-2.6,6.111A3.045,3.045,0,0,0,64,28.084Z" style="fill:#d3e8ea"/><polygon points="64 110.137 68.193 106.068 59.807 106.068 64 110.137" style="fill:#fff"/><path d="M88.618,109.716a4.752,4.752,0,0,0-4.633-3.648h-3.5l-4.4,4.266h12.68Z" style="fill:#fff"/><polygon points="54.38 110.333 62.767 110.333 58.573 106.265 54.38 110.333" style="fill:#fff"/><path d="M39.382,109.716l-.149.617h12.68l-4.4-4.266h-3.5A4.752,4.752,0,0,0,39.382,109.716Z" style="fill:#fff"/><polygon points="53.147 110.137 57.34 106.068 48.954 106.068 53.147 110.137" style="fill:#fff"/><polygon points="64 34.053 65.233 91.833 70.416 90.833 68.193 33.553 64 34.053" style="fill:#b1d2e6"/><path d="M65.233,90.834l.642,14.417H80.581s-6.816-5.625-3.261-10,5.406-3.416,5.406-3.416Z" style="fill:#b1d2e6"/><path d="M102.125,109.834H90.162a6.27,6.27,0,0,0-6.178-5.266H82.221c-3.1-1.055-5.1-3.324-5.1-5.818,0-3.538,3.925-6.416,8.75-6.416a1,1,0,0,0,0-2H71.127L68.894,34.053h2.522a1,1,0,0,0,1-1V28.584a1,1,0,0,0-1-1H67.761a4.516,4.516,0,0,0,.78-2.542c0-2.124-3.068-7.36-3.684-8.389a1.039,1.039,0,0,0-1.716,0c-.615,1.028-3.684,6.264-3.684,8.389a4.516,4.516,0,0,0,.78,2.542H56.583a1,1,0,0,0-1,1v4.469a1,1,0,0,0,1,1h2.522L56.873,90.334H42.125a1,1,0,0,0,0,2c4.825,0,8.75,2.878,8.75,6.416,0,2.494-2,4.763-5.1,5.818H44.016a6.27,6.27,0,0,0-6.178,5.266H25.875a1,1,0,0,0,0,2h76.25a1,1,0,0,0,0-2ZM61.458,25.042c0-.935,1.3-3.625,2.542-5.869,1.243,2.243,2.541,4.933,2.541,5.869a2.541,2.541,0,1,1-5.083,0Zm-3.875,4.542H70.416v2.469H57.583Zm3.523,4.469h5.786l2.233,56.281H58.874Zm-8.232,64.7a6.628,6.628,0,0,0-.126-1.218h6.564a1,1,0,0,0,0-2H52.042a8.9,8.9,0,0,0-2.967-3.2H78.925a7.82,7.82,0,0,0-3.8,6.416,6.683,6.683,0,0,0,.088,1.043H68.686a1,1,0,0,0,0,2h7.159a8.434,8.434,0,0,0,2.256,2.775H49.9A7.554,7.554,0,0,0,52.875,98.75Zm5.7,8.211,2.96,2.872h-5.92Zm-5.426,2.479-2.96-2.872h5.92Zm7.893-2.872h5.92L64,109.44Zm8.387.393,2.96,2.872h-5.92Zm2.466-.393h5.92l-2.96,2.872Zm-27.877,0h3.3l3.366,3.266H39.868A4.273,4.273,0,0,1,44.016,106.568Zm33.3,3.266,3.366-3.266h3.3a4.273,4.273,0,0,1,4.147,3.266Z" style="fill:#0f65ba"/></svg>
